<svg version="1.1" viewBox="0.0 0.0 120.0 60.0" fill="none" stroke="none" stroke-linecap="square" stroke-miterlimit="10" xmlns:xlink="http://www.w3.org/1999/xlink" xmlns="http://www.w3.org/2000/svg"><clipPath id="p.0"><path d="m0 0l120.0 0l0 60.0l-120.0 0l0 -60.0z" clip-rule="nonzero"/></clipPath><g clip-path="url(#p.0)"><defs><radialGradient id="p.1" gradientUnits="userSpaceOnUse" gradientTransform="matrix(8.190362721065817 0.0 0.0 8.190362721065817 0.0 0.0)" spreadMethod="pad" cx="7.3256828840655" cy="3.66284144203275" fx="7.3256828840655" fy="3.66284144203275" r="8.190362930297852"><stop offset="0.0" stop-color="#d4e5f5"/><stop offset="1.0" stop-color="#70a4d5"/></radialGradient></defs><path fill="url(#p.1)" d="m0 0l120.0 0l0 60.0l-120.0 0z" fill-rule="evenodd"/><path fill="#000000" fill-opacity="0.0" d="m-2.0245442 -5.0267715l63.937008 0l0 66.267715l-63.937008 0z" fill-rule="evenodd"/><path fill="#315082" d="m30.415611 23.298227q-1.21875 0 -1.796875 -0.65625q-0.5625 -0.65625 -0.5625 -1.609375q0 -0.421875 0.09375 -0.953125q0.109375 -0.53125 0.21875 -1.03125q0.109375 -0.5 0.15625 -0.640625q0.15625 -0.6875 0.296875 -1.359375q0.140625 -0.6875 0.140625 -1.109375q0 -1.03125 -0.71875 -1.03125q-0.53125 0 -0.9375 0.515625q-0.390625 0.515625 -0.625 1.328125l-1.359375 6.421875l-2.875 0l1.453125 -6.90625q0.0625 -0.234375 0.0625 -0.5q0 -0.875 -0.609375 -0.875q-0.546875 0 -0.96875 0.515625q-0.40625 0.5 -0.640625 1.34375l-1.359375 6.421875l-2.890625 0l2.125 -10.0l2.875 0l-0.21875 1.046875q1.03125 -1.140625 2.4375 -1.140625q1.765625 0 2.0625 1.71875q1.109375 -1.703125 2.78125 -1.703125q1.015625 0 1.609375 0.5625q0.609375 0.5625 0.609375 1.703125q0 0.578125 -0.140625 1.296875q-0.140625 0.703125 -0.390625 1.71875q-0.171875 0.609375 -0.296875 1.203125q-0.125 0.59375 -0.125 0.9375q0 0.390625 0.171875 0.625q0.1875 0.21875 0.625 0.21875q0.59375 0 0.953125 -0.4375q0.375 -0.4375 0.734375 -1.328125l0.828125 0q-0.734375 2.203125 -1.703125 2.953125q-0.96875 0.75 -2.015625 0.75zm6.2274933 -11.203125q-0.65625 0 -1.125 -0.453125q-0.453125 -0.46875 -0.453125 -1.125q0 -0.65625 0.453125 -1.125q0.46875 -0.484375 1.125 -0.484375q0.65625 0 1.125 0.484375q0.46875 0.46875 0.46875 1.125q0 0.65625 -0.46875 1.125q-0.46875 0.453125 -1.125 0.453125zm-1.359375 11.203125q-0.96875 0 -1.5625 -0.59375q-0.578125 -0.609375 -0.578125 -1.8125q0 -0.5 0.15625 -1.296875l1.359375 -6.421875l2.875 0l-1.4375 6.796875q-0.078125 0.296875 -0.078125 0.640625q0 0.40625 0.1875 0.578125q0.1875 0.171875 0.640625 0.171875q0.359375 0 0.640625 -0.125q-0.09375 1.0 -0.71875 1.53125q-0.625 0.53125 -1.484375 0.53125z" fill-rule="nonzero"/><path fill="#000000" fill-opacity="0.0" d="m3.9553487 7.6115484l140.8189 0l0 43.622047l-140.8189 0z" fill-rule="evenodd"/><path fill="#315082" d="m17.543743 35.936546q-0.96875 0 -1.5625 -0.59375q-0.578125 -0.609375 -0.578125 -1.8125q0 -0.5 0.15625 -1.296875l1.203125 -5.624998l-0.65625 0l0.15625 -0.796875l0.65625 0l0.59375 -2.765625l2.96875 -0.390625l-0.6875 3.15625l1.203125 0l-0.15625 0.796875l-1.203125 0l-1.28125 5.999998q-0.078125 0.296875 -0.078125 0.640625q0 0.40625 0.1875 0.578125q0.1875 0.171875 0.640625 0.171875q0.578125 0 1.078125 -0.484375q0.5 -0.5 0.71875 -1.28125l0.84375 0q-0.75 2.15625 -1.90625 2.9375q-1.15625 0.765625 -2.296875 0.765625zm6.2149963 0q-1.484375 0 -2.3125 -0.765625q-0.8125 -0.78125 -0.8125 -2.421875q0 -1.3749981 0.53125 -3.031248q0.546875 -1.671875 1.765625 -2.875q1.234375 -1.21875 3.109375 -1.21875q2.203125 0 2.203125 1.921875q0 1.125 -0.640625 2.0625q-0.640625 0.9375 -1.703125 1.515625q-1.0625 0.5625 -2.265625 0.640625q-0.03125 0.6093731 -0.03125 0.8124981q0 0.96875 0.328125 1.328125q0.34375 0.34375 1.109375 0.34375q1.078125 0 1.84375 -0.5q0.78125 -0.5 1.703125 -1.515625l0.671875 0q-2.21875 3.703125 -5.5 3.703125zm0.046875 -5.124998q0.734375 -0.046875 1.40625 -0.515625q0.671875 -0.484375 1.078125 -1.21875q0.40625 -0.75 0.40625 -1.5625q0 -0.828125 -0.5 -0.828125q-0.71875 0 -1.40625 1.265625q-0.6875 1.265625 -0.984375 2.859375zm7.6331177 5.124998q-1.484375 0 -2.3125 -0.765625q-0.8125 -0.78125 -0.8125 -2.421875q0 -1.3749981 0.546875 -3.031248q0.5625 -1.671875 1.765625 -2.875q1.21875 -1.21875 3.078125 -1.21875q1.1875 0 1.703125 0.53125q0.515625 0.515625 0.515625 1.3125q0 0.703125 -0.3125 1.09375q-0.296875 0.375 -0.75 0.375q-0.34375 0 -0.703125 -0.25q0.234375 -0.65625 0.234375 -1.171875q0 -0.390625 -0.140625 -0.609375q-0.125 -0.21875 -0.40625 -0.21875q-0.609375 0 -1.21875 0.984375q-0.59375 0.984375 -0.96875 2.390625q-0.375 1.390625 -0.375 2.515623q0 0.96875 0.328125 1.328125q0.34375 0.34375 1.109375 0.34375q1.078125 0 1.84375 -0.5q0.78125 -0.5 1.703125 -1.515625l0.671875 0q-2.21875 3.703125 -5.5 3.703125zm12.039368 0q-1.21875 0 -1.796875 -0.65625q-0.5625 -0.65625 -0.5625 -1.609375q0 -0.421875 0.09375 -0.953125q0.109375 -0.53125 0.21875 -1.0312481q0.109375 -0.5 0.140625 -0.640625q0.171875 -0.6875 0.3125 -1.359375q0.140625 -0.6875 0.140625 -1.109375q0 -1.03125 -0.71875 -1.03125q-0.53125 0 -0.9375 0.515625q-0.390625 0.515625 -0.625 1.328125l-1.359375 6.421873l-2.890625 0l2.90625 -13.593748l2.953125 -0.40625l-1.078125 5.046875q1.0 -1.125 2.34375 -1.125q1.015625 0 1.609375 0.5625q0.609375 0.5625 0.609375 1.703125q0 0.578125 -0.140625 1.296875q-0.140625 0.703125 -0.390625 1.71875q-0.171875 0.609375 -0.296875 1.2031231q-0.125 0.59375 -0.125 0.9375q0 0.390625 0.171875 0.625q0.1875 0.21875 0.625 0.21875q0.59375 0 0.953125 -0.4375q0.359375 -0.4375 0.71875 -1.328125l0.84375 0q-0.734375 2.203125 -1.703125 2.953125q-0.96875 0.75 -2.015625 0.75zm10.099991 0q-1.21875 0 -1.796875 -0.65625q-0.5625 -0.65625 -0.5625 -1.609375q0 -0.421875 0.09375 -0.953125q0.109375 -0.53125 0.21875 -1.0312481q0.109375 -0.5 0.140625 -0.640625q0.171875 -0.6875 0.3125 -1.359375q0.140625 -0.6875 0.140625 -1.109375q0 -1.03125 -0.71875 -1.03125q-0.53125 0 -0.9375 0.515625q-0.390625 0.515625 -0.625 1.328125l-1.359375 6.421873l-2.890625 0l2.125 -9.999998l2.875 0l-0.21875 1.046875q1.0 -1.125 2.34375 -1.125q1.015625 0 1.609375 0.5625q0.609375 0.5625 0.609375 1.703125q0 0.578125 -0.140625 1.296875q-0.140625 0.703125 -0.390625 1.71875q-0.171875 0.609375 -0.296875 1.2031231q-0.125 0.59375 -0.125 0.9375q0 0.390625 0.171875 0.625q0.1875 0.21875 0.625 0.21875q0.59375 0 0.953125 -0.4375q0.359375 -0.4375 0.71875 -1.328125l0.84375 0q-0.734375 2.203125 -1.703125 2.953125q-0.96875 0.75 -2.015625 0.75zm5.803116 -0.046875q-1.484375 0 -2.34375 -0.75q-0.859375 -0.765625 -0.859375 -2.40625q0 -1.3593731 0.5625 -3.015623q0.5625 -1.671875 1.796875 -2.875q1.234375 -1.21875 3.125 -1.21875q2.5624962 0 2.5624962 3.203125l0 0.03125q0.046875 0.015625 0.21875 0.015625q0.65625 0 1.515625 -0.34375q0.859375 -0.359375 1.5625 -0.859375l0.171875 0.546875q-0.578125 0.609375 -1.515625 1.046875q-0.921875 0.421875 -2.015625 0.609375q-0.15625 1.8125 -0.8281212 3.171873q-0.65625 1.359375 -1.703125 2.109375q-1.03125 0.734375 -2.25 0.734375zm0.796875 -1.796875q0.484375 0 0.953125 -0.546875q0.484375 -0.546875 0.84375 -1.5q0.359375 -0.9531231 0.53125 -2.109373q-0.546875 -0.125 -0.546875 -0.84375q0 -0.828125 0.625 -1.078125q-0.046875 -0.65625 -0.203125 -0.90625q-0.15625 -0.25 -0.5625 -0.25q-0.65625 0 -1.28125 0.953125q-0.625 0.953125 -1.0 2.296875q-0.375 1.34375 -0.375 2.359373q0 0.96875 0.21875 1.296875q0.21875 0.328125 0.796875 0.328125zm7.04562 1.84375q-0.96875 0 -1.5625 -0.59375q-0.578125 -0.609375 -0.578125 -1.8125q0 -0.5 0.15625 -1.296875l2.140625 -10.015623l2.953125 -0.40625l-2.296875 10.796873q-0.078125 0.296875 -0.078125 0.640625q0 0.40625 0.1875 0.578125q0.1875 0.171875 0.640625 0.171875q0.578125 0 1.078125 -0.484375q0.5 -0.5 0.71875 -1.28125l0.84375 0q-0.75 2.15625 -1.90625 2.9375q-1.15625 0.765625 -2.296875 0.765625zm6.2774963 -0.046875q-1.484375 0 -2.34375 -0.75q-0.859375 -0.765625 -0.859375 -2.40625q0 -1.3593731 0.5625 -3.015623q0.5625 -1.671875 1.796875 -2.875q1.234375 -1.21875 3.125 -1.21875q2.5625 0 2.5625 3.203125l0 0.03125q0.046875 0.015625 0.21875 0.015625q0.65625 0 1.515625 -0.34375q0.859375 -0.359375 1.5625 -0.859375l0.171875 0.546875q-0.578125 0.609375 -1.515625 1.046875q-0.921875 0.421875 -2.015625 0.609375q-0.15625 1.8125 -0.828125 3.171873q-0.65625 1.359375 -1.703125 2.109375q-1.03125 0.734375 -2.25 0.734375zm0.796875 -1.796875q0.484375 0 0.953125 -0.546875q0.484375 -0.546875 0.84375 -1.5q0.359375 -0.9531231 0.53125 -2.109373q-0.546875 -0.125 -0.546875 -0.84375q0 -0.828125 0.625 -1.078125q-0.046875 -0.65625 -0.203125 -0.90625q-0.15625 -0.25 -0.5625 -0.25q-0.65625 0 -1.28125 0.953125q-0.625 0.953125 -1.0 2.296875q-0.375 1.34375 -0.375 2.359373q0 0.96875 0.21875 1.296875q0.21875 0.328125 0.796875 0.328125zm8.608124 6.71875q-0.96875 0 -1.609375 -0.5q-0.640625 -0.5 -0.640625 -1.4375q0 -1.140625 0.921875 -1.828125q0.921875 -0.6875 2.34375 -1.15625l0.234375 -1.0625q-1.015625 1.109375 -2.390625 1.109375q-1.140625 0 -1.90625 -0.78125q-0.765625 -0.78125 -0.765625 -2.4375q0 -1.4843731 0.59375 -3.109373q0.59375 -1.640625 1.765625 -2.765625q1.171875 -1.125 2.78125 -1.125q0.828125 0 1.21875 0.28125q0.40625 0.265625 0.40625 0.734375l0 0.125l0.21875 -1.046875l2.875 0l-1.96875 9.281248q0.953125 -0.328125 1.53125 -0.953125q0.578125 -0.640625 0.984375 -1.90625l0.84375 0q-0.546875 1.78125 -1.46875 2.609375q-0.921875 0.828125 -2.078125 1.125l-0.296875 1.4375q-0.40625 1.953125 -1.390625 2.671875q-0.96875 0.734375 -2.203125 0.734375zm0.15625 -6.8125q0.453125 0 0.9375 -0.421875q0.484375 -0.421875 0.65625 -1.140625l1.015625 -4.749998q0 -0.234375 -0.203125 -0.484375q-0.1875 -0.25 -0.609375 -0.25q-0.796875 0 -1.4375 0.9375q-0.640625 0.921875 -1.0 2.234375q-0.359375 1.3125 -0.359375 2.312498q0 1.0 0.28125 1.28125q0.296875 0.28125 0.71875 0.28125zm-0.625 5.25q0.34375 0 0.65625 -0.46875q0.328125 -0.453125 0.5 -1.3125l0.125 -0.578125q-1.953125 0.71875 -1.953125 1.703125q0 0.265625 0.171875 0.453125q0.1875 0.203125 0.5 0.203125zm10.186859 1.5625q-0.9375 0 -1.65625 -0.609375q-0.703125 -0.609375 -0.703125 -1.546875q0 -0.890625 0.4375 -1.453125q0.4375 -0.546875 1.140625 -0.875q0.703125 -0.3125 1.875 -0.671875l0.203125 -0.890625q-1.015625 1.171875 -2.4375 1.171875q-0.96875 0 -1.5625 -0.59375q-0.578125 -0.609375 -0.578125 -1.8125q0 -0.5 0.15625 -1.296875l1.359375 -6.421873l2.875 0l-1.4375 6.796873q-0.0625 0.25 -0.0625 0.5q0 0.890625 0.609375 0.890625q0.5625 0 0.953125 -0.46875q0.40625 -0.484375 0.640625 -1.296875l1.359375 -6.421873l2.90625 0l-2.4375 11.593748q-0.40625 1.921875 -1.421875 2.65625q-1.0 0.75 -2.21875 0.75zm-0.46875 -1.78125q0.359375 0 0.671875 -0.375q0.328125 -0.359375 0.515625 -1.1875l0.234375 -1.171875q-1.0625 0.359375 -1.640625 0.828125q-0.578125 0.484375 -0.578125 1.25q0 0.234375 0.234375 0.4375q0.25 0.21875 0.5625 0.21875z" fill-rule="nonzero"/><path fill="#000000" fill-opacity="0.0" d="m42.28078 32.535435l85.76378 0l0 27.464565l-85.76378 0z" fill-rule="evenodd"/><path fill="#315082" d="m52.43703 47.935432l-1.140625 -4.765625l0.984375 0l0.71875 3.28125l0.875 -3.28125l1.140625 0l0.84375 3.328125l0.734375 -3.328125l0.96875 0l-1.15625 4.765625l-1.03125 0l-0.9375 -3.5625l-0.953125 3.5625l-1.046875 0zm6.516861 -4.765625l0 1.75q0.4375 -0.515625 1.046875 -0.515625q0.328125 0 0.578125 0.125q0.25 0.109375 0.375 0.296875q0.125 0.171875 0.171875 0.40625q0.0625 0.21875 0.0625 0.671875l0 2.03125l-0.921875 0l0 -1.828125q0 -0.53125 -0.0625 -0.671875q-0.046875 -0.15625 -0.171875 -0.234375q-0.125 -0.09375 -0.328125 -0.09375q-0.234375 0 -0.421875 0.109375q-0.171875 0.109375 -0.25 0.328125q-0.078125 0.21875 -0.078125 0.65625l0 1.734375l-0.921875 0l0 -4.765625l0.921875 0zm3.8315277 2.359375l-0.828125 -0.140625q0.140625 -0.5 0.484375 -0.734375q0.34375 -0.25 1.015625 -0.25q0.6093788 0 0.9062538 0.15625q0.296875 0.140625 0.421875 0.359375q0.125 0.21875 0.125 0.8125l-0.015625 1.0625q0 0.46875 0.046875 0.6875q0.046875 0.203125 0.171875 0.453125l-0.90625 0q-0.046875 -0.09375 -0.09375 -0.265625q-0.015625 -0.078125 -0.03125 -0.109375q-0.23437881 0.21875 -0.5000038 0.34375q-0.265625 0.109375 -0.5625 0.109375q-0.546875 0 -0.859375 -0.28125q-0.296875 -0.296875 -0.296875 -0.734375q0 -0.296875 0.140625 -0.515625q0.140625 -0.234375 0.390625 -0.359375q0.25 -0.125 0.734375 -0.21875q0.640625 -0.109375 0.8750038 -0.21875l0 -0.09375q0 -0.265625 -0.12500381 -0.375q-0.125 -0.109375 -0.484375 -0.109375q-0.25 0 -0.390625 0.09375q-0.125 0.09375 -0.21875 0.328125zm1.2187538 0.75q-0.17187881 0.0625 -0.5468788 0.140625q-0.375 0.078125 -0.5 0.15625q-0.171875 0.125 -0.171875 0.328125q0 0.1875 0.140625 0.328125q0.140625 0.140625 0.359375 0.140625q0.25 0 0.46875 -0.171875q0.171875 -0.109375 0.21875 -0.296875q0.031253815 -0.109375 0.031253815 -0.4375l0 -0.1875zm3.389389 -1.796875l0 0.734375l-0.625 0l0 1.390625q0 0.421875 0.015625 0.5q0.015625 0.0625 0.078125 0.109375q0.0625 0.046875 0.15625 0.046875q0.125 0 0.375 -0.09375l0.078125 0.703125q-0.328125 0.140625 -0.734375 0.140625q-0.234375 0 -0.4375 -0.078125q-0.203125 -0.09375 -0.296875 -0.21875q-0.09375 -0.125 -0.125 -0.359375q-0.03125 -0.15625 -0.03125 -0.640625l0 -1.5l-0.421875 0l0 -0.734375l0.421875 0l0 -0.6875l0.921875 -0.53125l0 1.21875l0.625 0zm2.4877777 -0.46875l0 -0.84375l0.90625 0l0 0.84375l-0.90625 0zm0 3.921875l0 -3.453125l0.90625 0l0 3.453125l-0.90625 0zm1.5211945 -0.984375l0.921875 -0.140625q0.046875 0.265625 0.21875 0.40625q0.1875 0.140625 0.515625 0.140625q0.359375 0 0.53125 -0.140625q0.125 -0.078125 0.125 -0.234375q0 -0.109375 -0.0625 -0.171875q-0.078125 -0.0625 -0.3125 -0.125q-1.109375 -0.234375 -1.40625 -0.4375q-0.40625 -0.28125 -0.40625 -0.78125q0 -0.453125 0.34375 -0.75q0.359375 -0.3125 1.109375 -0.3125q0.703125 0 1.046875 0.234375q0.359375 0.234375 0.484375 0.6875l-0.859375 0.15625q-0.0625 -0.203125 -0.21875 -0.3125q-0.15625 -0.109375 -0.4375 -0.109375q-0.359375 0 -0.515625 0.109375q-0.109375 0.0625 -0.109375 0.171875q0 0.109375 0.09375 0.171875q0.125 0.09375 0.859375 0.265625q0.734375 0.15625 1.015625 0.390625q0.28125 0.25 0.28125 0.6875q0 0.46875 -0.390625 0.8125q-0.390625 0.34375 -1.171875 0.34375q-0.703125 0 -1.125 -0.28125q-0.40625 -0.296875 -0.53125 -0.78125zm7.4574585 -2.46875l0 0.734375l-0.625 0l0 1.390625q0 0.421875 0.015625 0.5q0.015625 0.0625 0.078125 0.109375q0.0625 0.046875 0.15625 0.046875q0.125 0 0.375 -0.09375l0.078125 0.703125q-0.328125 0.140625 -0.734375 0.140625q-0.234375 0 -0.4375 -0.078125q-0.203125 -0.09375 -0.296875 -0.21875q-0.09375 -0.125 -0.125 -0.359375q-0.03125 -0.15625 -0.03125 -0.640625l0 -1.5l-0.421875 0l0 -0.734375l0.421875 0l0 -0.6875l0.921875 -0.53125l0 1.21875l0.625 0zm2.6384583 2.359375l0.90625 0.140625q-0.171875 0.515625 -0.5625 0.78125q-0.375 0.25 -0.9375 0.25q-0.90625 0 -1.34375 -0.59375q-0.328125 -0.46875 -0.328125 -1.1875q0 -0.859375 0.4375 -1.34375q0.453125 -0.484375 1.140625 -0.484375q0.765625 0 1.203125 0.515625q0.453125 0.5 0.4375 1.546875l-2.296875 0q0.015625 0.40625 0.21875 0.640625q0.21875 0.21875 0.53125 0.21875q0.21875 0 0.359375 -0.109375q0.15625 -0.125 0.234375 -0.375zm0.046875 -0.921875q-0.015625 -0.40625 -0.21875 -0.609375q-0.1875 -0.203125 -0.46875 -0.203125q-0.296875 0 -0.484375 0.21875q-0.203125 0.21875 -0.203125 0.59375l1.375 0zm4.655014 -0.421875l-0.890625 0.171875q-0.046875 -0.265625 -0.21875 -0.40625q-0.15625 -0.140625 -0.40625 -0.140625q-0.34375 0 -0.546875 0.234375q-0.203125 0.234375 -0.203125 0.796875q0 0.609375 0.203125 0.859375q0.203125 0.25 0.546875 0.25q0.265625 0 0.421875 -0.140625q0.171875 -0.15625 0.25 -0.515625l0.890625 0.15625q-0.140625 0.625 -0.546875 0.9375q-0.390625 0.3125 -1.046875 0.3125q-0.765625 0 -1.21875 -0.46875q-0.4375 -0.484375 -0.4375 -1.328125q0 -0.859375 0.453125 -1.328125q0.453125 -0.484375 1.21875 -0.484375q0.625 0 1.0 0.28125q0.375 0.265625 0.53125 0.8125zm1.608139 -2.328125l0 1.75q0.4375 -0.515625 1.046875 -0.515625q0.328125 0 0.578125 0.125q0.25 0.109375 0.375 0.296875q0.125 0.171875 0.171875 0.40625q0.0625 0.21875 0.0625 0.671875l0 2.03125l-0.921875 0l0 -1.828125q0 -0.53125 -0.0625 -0.671875q-0.046875 -0.15625 -0.171875 -0.234375q-0.125 -0.09375 -0.328125 -0.09375q-0.234375 0 -0.421875 0.109375q-0.171875 0.109375 -0.25 0.328125q-0.078125 0.21875 -0.078125 0.65625l0 1.734375l-0.921875 0l0 -4.765625l0.921875 0zm6.3002777 4.765625l-0.921875 0l0 -1.765625q0 -0.5625 -0.0625 -0.71875q-0.046875 -0.171875 -0.1875 -0.25q-0.125 -0.09375 -0.3125 -0.09375q-0.234375 0 -0.421875 0.125q-0.1875 0.125 -0.265625 0.34375q-0.0625 0.21875 -0.0625 0.796875l0 1.5625l-0.921875 0l0 -3.453125l0.84375 0l0 0.515625q0.453125 -0.59375 1.140625 -0.59375q0.3125 0 0.5625 0.109375q0.25 0.109375 0.375 0.28125q0.125 0.171875 0.171875 0.390625q0.0625 0.203125 0.0625 0.609375l0 2.140625zm0.7065277 -1.78125q0 -0.453125 0.21875 -0.875q0.234375 -0.421875 0.640625 -0.640625q0.40625 -0.234375 0.921875 -0.234375q0.78125 0 1.28125 0.515625q0.5 0.5 0.5 1.28125q0 0.78125 -0.515625 1.296875q-0.5 0.515625 -1.265625 0.515625q-0.46875 0 -0.90625 -0.203125q-0.421875 -0.21875 -0.65625 -0.640625q-0.21875 -0.421875 -0.21875 -1.015625zm0.9375 0.0625q0 0.5 0.234375 0.78125q0.25 0.265625 0.609375 0.265625q0.359375 0 0.59375 -0.265625q0.25 -0.28125 0.25 -0.796875q0 -0.5 -0.25 -0.765625q-0.234375 -0.28125 -0.59375 -0.28125q-0.359375 0 -0.609375 0.28125q-0.234375 0.265625 -0.234375 0.78125zm3.3471527 1.71875l0 -4.765625l0.90625 0l0 4.765625l-0.90625 0zm1.6305695 -1.78125q0 -0.453125 0.21875 -0.875q0.234375 -0.421875 0.640625 -0.640625q0.40625 -0.234375 0.921875 -0.234375q0.78125 0 1.28125 0.515625q0.5 0.5 0.5 1.28125q0 0.78125 -0.515625 1.296875q-0.5 0.515625 -1.265625 0.515625q-0.46875 0 -0.90625 -0.203125q-0.421875 -0.21875 -0.65625 -0.640625q-0.21875 -0.421875 -0.21875 -1.015625zm0.9375 0.0625q0 0.5 0.234375 0.78125q0.25 0.265625 0.609375 0.265625q0.359375 0 0.59375 -0.265625q0.25 -0.28125 0.25 -0.796875q0 -0.5 -0.25 -0.765625q-0.234375 -0.28125 -0.59375 -0.28125q-0.359375 0 -0.609375 0.28125q-0.234375 0.265625 -0.234375 0.78125zm3.2534027 1.953125l1.046875 0.125q0.03125 0.171875 0.125 0.25q0.125 0.09375 0.40625 0.09375q0.359375 0 0.53125 -0.109375q0.125 -0.078125 0.1875 -0.234375q0.046875 -0.109375 0.046875 -0.421875l0 -0.5q-0.421875 0.5625 -1.046875 0.5625q-0.6875 0 -1.09375 -0.59375q-0.328125 -0.453125 -0.328125 -1.15625q0 -0.859375 0.421875 -1.3125q0.421875 -0.46875 1.046875 -0.46875q0.640625 0 1.046875 0.5625l0 -0.484375l0.859375 0l0 3.09375q0 0.609375 -0.109375 0.90625q-0.09375 0.3125 -0.28125 0.484375q-0.171875 0.171875 -0.484375 0.265625q-0.296875 0.109375 -0.765625 0.109375q-0.875 0 -1.25 -0.3125q-0.359375 -0.296875 -0.359375 -0.75q0 -0.046875 0 -0.109375zm0.8125 -2.03125q0 0.546875 0.21875 0.8125q0.21875 0.25 0.53125 0.25q0.328125 0 0.5625 -0.265625q0.234375 -0.265625 0.234375 -0.78125q0 -0.53125 -0.234375 -0.78125q-0.21875 -0.265625 -0.546875 -0.265625q-0.328125 0 -0.546875 0.25q-0.21875 0.25 -0.21875 0.78125zm2.9096527 -1.65625l0.96875 0l0.828125 2.453125l0.8125 -2.453125l0.9375 0l-1.21875 3.328125l-0.21875 0.59375q-0.125 0.3125 -0.234375 0.46875q-0.109375 0.15625 -0.25 0.25q-0.140625 0.109375 -0.34375 0.15625q-0.203125 0.0625 -0.46875 0.0625q-0.265625 0 -0.515625 -0.0625l-0.078125 -0.71875q0.21875 0.046875 0.390625 0.046875q0.3125 0 0.46875 -0.1875q0.15625 -0.1875 0.234375 -0.46875l-1.3125 -3.46875zm6.092514 2.21875l-0.828125 0q0 -0.171875 0 -0.21875q0 -0.390625 0.125 -0.65625q0.140625 -0.265625 0.53125 -0.578125q0.40625 -0.328125 0.484375 -0.4375q0.125 -0.15625 0.125 -0.34375q0 -0.265625 -0.21875 -0.453125q-0.203125 -0.203125 -0.5625 -0.203125q-0.359375 0 -0.59375 0.203125q-0.234375 0.203125 -0.3125 0.609375l-0.84375 -0.109375q0.03125 -0.578125 0.484375 -0.984375q0.46875 -0.40625 1.21875 -0.40625q0.78125 0 1.25 0.421875q0.46875 0.40625 0.46875 0.953125q0 0.296875 -0.171875 0.5625q-0.171875 0.265625 -0.734375 0.734375q-0.28125 0.25 -0.359375 0.390625q-0.0625 0.140625 -0.0625 0.515625zm-0.828125 1.234375l0 -0.90625l0.921875 0l0 0.90625l-0.921875 0z" fill-rule="nonzero"/><defs><radialGradient id="p.2" gradientUnits="userSpaceOnUse" gradientTransform="matrix(3.1298095985466157 0.0 0.0 3.1298095985466157 0.0 0.0)" spreadMethod="pad" cx="34.3291302870865" cy="7.195904729988086" fx="34.3291302870865" fy="7.195904729988086" r="3.129809617996216"><stop offset="0.0" stop-color="#0b5394"/><stop offset="0.5" stop-color="#3e7cb5"/><stop offset="0.75" stop-color="#5790c5"/><stop offset="0.88" stop-color="#649acd"/><stop offset="0.94" stop-color="#6a9fd1"/><stop offset="0.97" stop-color="#6da2d3"/><stop offset="1.0" stop-color="#70a4d5"/></radialGradient></defs><path fill="url(#p.2)" d="m99.48294 16.813648l0 0c4.8689423 0 9.47023 1.2979622 12.489784 3.523201c3.0195465 2.2252388 4.125366 5.1330986 3.001648 7.8931255l-15.491432 -2.1407356z" fill-rule="evenodd"/><path fill="#000000" fill-opacity="0.0" d="m99.48294 16.813648l0 0c4.8689423 0 9.47023 1.2979622 12.489784 3.523201c3.0195465 2.2252388 4.125366 5.1330986 3.001648 7.8931255" fill-rule="evenodd"/><defs><radialGradient id="p.3" gradientUnits="userSpaceOnUse" gradientTransform="matrix(3.075241777392355 0.0 0.0 3.075241777392355 0.0 0.0)" spreadMethod="pad" cx="2.706210622637462" cy="12.914383101249582" fx="2.706210622637462" fy="12.914383101249582" r="3.075241804122925"><stop offset="0.0" stop-color="#0b5394"/><stop offset="0.5" stop-color="#3e7cb5"/><stop offset="0.75" stop-color="#5790c5"/><stop offset="0.88" stop-color="#649acd"/><stop offset="0.94" stop-color="#6a9fd1"/><stop offset="0.97" stop-color="#6da2d3"/><stop offset="1.0" stop-color="#70a4d5"/></radialGradient></defs><path fill="url(#p.3)" d="m16.313854 44.771584l0 0c-4.4834576 0.010154724 -8.766459 -1.0814857 -11.796592 -3.0066833c-3.0301328 -1.9251976 -4.5265093 -4.505493 -4.1214423 -7.1068535l15.856148 0.8380165z" fill-rule="evenodd"/><path fill="#000000" fill-opacity="0.0" d="m16.313854 44.771584l0 0c-4.4834576 0.010154724 -8.766459 -1.0814857 -11.796592 -3.0066833c-3.0301328 -1.9251976 -4.5265093 -4.505493 -4.1214423 -7.1068535" fill-rule="evenodd"/></g></svg>